<svg width="13" height="14" viewBox="0 0 13 14" fill="none" xmlns="http://www.w3.org/2000/svg">
<g clip-path="url(#clip0_77_255)">
<g clip-path="url(#clip1_77_255)">
<path fill-rule="evenodd" clip-rule="evenodd" d="M4.62547 12.7022L0.404532 8.31798C0.318502 8.22776 0.270508 8.10789 0.270508 7.98323C0.270508 7.85857 0.318502 7.7387 0.404532 7.64848L2.01003 5.98042C2.09301 5.89672 2.20545 5.84884 2.32329 5.84701C2.44114 5.84519 2.55501 5.88958 2.64053 5.97067L5.06503 8.33504L10.1155 3.07167C10.1575 3.02917 10.2074 2.99542 10.2625 2.97239C10.3176 2.94936 10.3768 2.9375 10.4365 2.9375C10.4962 2.9375 10.5553 2.94936 10.6104 2.97239C10.6655 2.99542 10.7155 3.02917 10.7574 3.07167L12.3255 4.69992C12.412 4.79013 12.4598 4.91053 12.4588 5.03548C12.4596 5.16014 12.4118 5.28022 12.3255 5.37023L5.26491 12.7022C5.22369 12.7456 5.1741 12.7801 5.11914 12.8037C5.06418 12.8272 5.00499 12.8394 4.94519 12.8394C4.88538 12.8394 4.8262 12.8272 4.77124 12.8037C4.71628 12.7801 4.66668 12.7456 4.62547 12.7022Z" fill="#292450"/>
</g>
</g>
<defs>
<clipPath id="clip0_77_255">
<rect width="13" height="13" fill="white" transform="translate(0 0.5)"/>
</clipPath>
<clipPath id="clip1_77_255">
<rect width="13" height="10.5625" fill="white" transform="translate(0 2.9375)"/>
</clipPath>
</defs>
</svg> 
